# xmcd
#
# Track frame offsets:
#	150
#	17960
#	33533
#	48469
#	65546
#	81565
#	92771
#	106799
#	133861
#	149020
#	159161
#	177391
#	199141
#	209606
#
# Disc length: 2917 seconds
# Revision: 0
# Processed by: cddbd v1.5.2PL0 Copyright (c) Steve Scherf et al.
# Submitted via: dBpowerAMP V12.0
#
DISCID=d20b630e
DTITLE=Tom Wernigg - The Trains Don't Run On Time
DYEAR=2016
DGENRE=Singer/Songwriter
TTITLE0=Watch Me Now
TTITLE1=Long Goodbyes
TTITLE2=The Darker Side of Love
TTITLE3=I Love You So Bad it Hurts
TTITLE4=The Trains Don't Run on Time
TTITLE5=I'm Still in Love With You
TTITLE6=Down in the Dumps
TTITLE7=Lucinda
TTITLE8=That's the Way of the New World
TTITLE9=How Do I Love Thee
TTITLE10=These Hands
TTITLE11=I Stole This Song
TTITLE12=I've Been Scared
TTITLE13=Jason is on My Mind
EXTD=
EXTT0=
EXTT1=
EXTT2=
EXTT3=
EXTT4=
EXTT5=
EXTT6=
EXTT7=
EXTT8=
EXTT9=
EXTT10=
EXTT11=
EXTT12=
EXTT13=
PLAYORDER=
